<svg width="220" height="110" viewBox="0 0 220 110" fill="none" xmlns="http://www.w3.org/2000/svg">
<path d="M131.498 98.4903C129.331 98.4899 127.212 97.8469 125.411 96.6428C123.609 95.4386 122.205 93.7273 121.376 91.7253C120.546 89.7232 120.329 87.5202 120.752 85.3948C121.175 83.2694 122.218 81.317 123.75 79.7845L200.458 3.07614C202.525 1.07999 205.293 -0.0245534 208.167 0.000414252C211.04 0.0253819 213.788 1.17786 215.82 3.20962C217.852 5.24139 219.004 7.98988 219.029 10.8631C219.054 13.7364 217.95 16.5045 215.954 18.5712L139.245 95.2795C138.229 96.2987 137.021 97.1069 135.692 97.6579C134.362 98.2089 132.937 98.4918 131.498 98.4903ZM10.956 109.449C8.78898 109.448 6.67076 108.805 4.8691 107.601C3.06744 106.397 1.66325 104.686 0.834028 102.684C0.00481017 100.682 -0.212198 98.4785 0.210438 96.3531C0.633074 94.2277 1.67638 92.2753 3.20846 90.7428L68.9585 24.9928C71.0252 22.9967 73.7933 21.8921 76.6666 21.9171C79.5398 21.9421 82.2883 23.0945 84.32 25.1263C86.3518 27.1581 87.5043 29.9065 87.5293 32.7798C87.5542 35.653 86.4497 38.4211 84.4535 40.4879L18.7035 106.238C17.6873 107.257 16.4797 108.065 15.1501 108.616C13.8205 109.167 12.3952 109.45 10.956 109.449Z" fill="#FCB400"/>
<path d="M131.498 98.4904C130.058 98.4918 128.633 98.209 127.304 97.658C125.974 97.1069 124.766 96.2987 123.75 95.2796L68.9585 40.4879C66.9623 38.4211 65.8578 35.653 65.8827 32.7798C65.9077 29.9066 67.0602 27.1581 69.0919 25.1263C71.1237 23.0945 73.8722 21.9421 76.7454 21.9171C79.6187 21.8921 82.3868 22.9967 84.4535 24.9928L139.245 79.7845C140.777 81.317 141.821 83.2694 142.243 85.3948C142.666 87.5202 142.449 89.7232 141.62 91.7253C140.79 93.7274 139.386 95.4387 137.585 96.6428C135.783 97.8469 133.665 98.4899 131.498 98.4904Z" fill="#FCB400"/>
</svg>
