<svg width="20" height="20" viewBox="0 0 20 20" fill="none" xmlns="http://www.w3.org/2000/svg">
<path d="M9.00046 3.882V17.24C9.00016 17.6545 8.8536 18.0555 8.5866 18.3725C8.3196 18.6896 7.94929 18.9022 7.5409 18.9729C7.13252 19.0437 6.71227 18.968 6.35418 18.7593C5.9961 18.5506 5.72316 18.2222 5.58346 17.832L3.43646 11.682M3.43646 11.682C2.58767 11.3211 1.88964 10.6791 1.46049 9.86267C1.03133 9.04627 0.897411 8.10668 1.08139 7.2029C1.26537 6.29912 1.75595 5.48665 2.47011 4.903C3.18426 4.31935 4.07814 4.00035 5.00046 4H6.83246C10.9325 4 14.4575 2.766 16.0005 1V15C14.4575 13.234 10.9335 12 6.83246 12H5.00046C4.46309 12.0008 3.93111 11.892 3.43646 11.682ZM16.0005 11C16.7961 11 17.5592 10.6839 18.1218 10.1213C18.6844 9.55871 19.0005 8.79565 19.0005 8C19.0005 7.20435 18.6844 6.44129 18.1218 5.87868C17.5592 5.31607 16.7961 5 16.0005 5" stroke="#FE8F00" stroke-width="2" stroke-linecap="round" stroke-linejoin="round"/>
</svg>
