<svg width="21" height="23" viewBox="0 0 21 23" fill="none" xmlns="http://www.w3.org/2000/svg">
<path d="M17.0057 11V4.749C17.0057 4.67006 16.9902 4.59189 16.96 4.51896C16.9298 4.44603 16.8855 4.37978 16.8296 4.324L13.6805 1.176C13.5681 1.06345 13.4155 1.00014 13.2564 1H1.60021C1.44103 1 1.28836 1.06321 1.1758 1.17574C1.06324 1.28826 1 1.44087 1 1.6V20.4C1 20.5591 1.06324 20.7117 1.1758 20.8243C1.28836 20.9368 1.44103 21 1.60021 21H10.0032M5.00142 9H13.0043M5.00142 5H9.00284M5.00142 13H8.00249" stroke="#FE8F00" stroke-width="1.8" stroke-linecap="round" stroke-linejoin="round"/>
<path d="M13.0039 1V4.4C13.0039 4.55913 13.0671 4.71174 13.1797 4.82426C13.2923 4.93679 13.4449 5 13.6041 5H17.0053M16.9973 14.125L19.5542 14.774C19.8203 14.842 20.0074 15.084 19.9994 15.358C19.8273 21.116 16.5052 22 16.5052 22C16.5052 22 13.183 21.116 13.0109 15.358C13.0078 15.2246 13.0502 15.0941 13.1311 14.988C13.212 14.8819 13.3266 14.8064 13.4561 14.774L16.013 14.125C16.3361 14.043 16.6742 14.043 16.9973 14.125Z" stroke="#FE8F00" stroke-width="1.5" stroke-linecap="round" stroke-linejoin="round"/>
</svg>
