<svg width="263" height="263" viewBox="0 0 263 263" fill="none" xmlns="http://www.w3.org/2000/svg">
<path d="M103.2 184.718L123.637 223.313C124.414 224.78 125.531 225.998 126.877 226.845C128.222 227.691 129.749 228.137 131.302 228.137C132.856 228.137 134.382 227.691 135.727 226.845C137.073 225.998 138.19 224.78 138.967 223.313L159.413 184.718H200.287C201.84 184.718 203.366 184.272 204.712 183.425C206.057 182.579 207.175 181.361 207.952 179.894C208.728 178.427 209.137 176.763 209.137 175.069C209.137 173.376 208.728 171.712 207.952 170.245L187.506 131.65L207.952 93.0551C208.728 91.5883 209.137 89.9245 209.137 88.2308C209.137 86.5371 208.728 84.8732 207.952 83.4064C207.175 81.9397 206.057 80.7216 204.712 79.8747C203.366 79.0279 201.84 78.582 200.287 78.582H159.404L138.967 39.9869C138.19 38.5203 137.073 37.3023 135.727 36.4556C134.382 35.6088 132.856 35.163 131.302 35.163C129.749 35.163 128.222 35.6088 126.877 36.4556C125.531 37.3023 124.414 38.5203 123.637 39.9869L103.192 78.582H62.3266C60.7722 78.5803 59.2448 79.0249 57.8981 79.8711C56.5514 80.7173 55.4329 81.9352 54.655 83.4023C53.8771 84.8693 53.4674 86.5338 53.467 88.2284C53.4667 89.9229 53.8756 91.5876 54.6528 93.0551L75.0986 131.65L54.6528 170.245C53.876 171.712 53.4671 173.376 53.467 175.069C53.467 176.763 53.876 178.427 54.6528 179.894C55.4296 181.361 56.5469 182.579 57.8924 183.425C59.2379 184.272 60.7641 184.718 62.3178 184.718H103.2ZM118.53 184.718H144.074L131.302 208.84L118.53 184.718ZM110.856 170.245L90.4107 131.65L110.856 93.0551H151.73L172.176 131.65L151.73 170.245H110.856ZM82.7458 146.123L95.5443 170.245H69.9827L82.7547 146.123H82.7458ZM82.7458 117.177L69.9827 93.0551H95.5354L82.7547 117.177H82.7458ZM118.521 78.582L131.302 54.4601L144.074 78.582H118.53H118.521ZM167.06 93.0551H192.613L179.841 117.177L167.06 93.0551ZM179.841 146.123L192.613 170.245H167.06L179.841 146.123Z" fill="#FCB400"/>
<circle cx="131.5" cy="131.5" r="121.5" stroke="#FCB400" stroke-width="20"/>
<circle cx="131.741" cy="131.741" r="19.5082" fill="#FCB400"/>
</svg>
