<svg width="261" height="248" viewBox="0 0 261 248" fill="none" xmlns="http://www.w3.org/2000/svg">
<path d="M101.958 101.5C88.1625 101.5 76.3524 96.5882 66.5281 86.7639C56.7038 76.9396 51.7917 65.1295 51.7917 51.3337C51.7917 37.5378 56.7038 25.7278 66.5281 15.9035C76.3524 6.07915 88.1625 1.16699 101.958 1.16699C115.754 1.16699 127.564 6.07915 137.389 15.9035C147.213 25.7278 152.125 37.5378 152.125 51.3337C152.125 65.1295 147.213 76.9396 137.389 86.7639C127.564 96.5882 115.754 101.5 101.958 101.5ZM101.958 76.417C108.856 76.417 114.763 73.9588 119.68 69.0425C124.596 64.1262 127.05 58.2232 127.042 51.3337C127.042 44.4357 124.583 38.5286 119.667 33.6123C114.751 28.6959 108.848 26.242 101.958 26.2503C95.0604 26.2503 89.1533 28.7085 84.237 33.6248C79.3206 38.5412 76.8666 44.4441 76.875 51.3337C76.875 58.2316 79.3332 64.1387 84.2495 69.055C89.1658 73.9714 95.0688 76.4253 101.958 76.417ZM241.171 245.729L201.037 205.596C196.648 208.104 191.945 210.195 186.928 211.867C181.911 213.539 176.581 214.375 170.937 214.375C155.26 214.375 141.937 208.886 130.967 197.908C119.997 186.93 114.508 173.607 114.5 157.938C114.5 142.261 119.989 128.933 130.967 117.955C141.945 106.977 155.269 101.492 170.937 101.5C186.615 101.5 199.942 106.989 210.92 117.968C221.898 128.946 227.383 142.269 227.375 157.938C227.375 163.582 226.539 168.912 224.867 173.928C223.194 178.945 221.104 183.648 218.596 188.038L258.729 228.171L241.171 245.729ZM170.937 189.292C179.717 189.292 187.137 186.261 193.199 180.199C199.261 174.137 202.292 166.717 202.292 157.938C202.292 149.159 199.261 141.738 193.199 135.676C187.137 129.615 179.717 126.584 170.937 126.584C162.158 126.584 154.738 129.615 148.676 135.676C142.614 141.738 139.583 149.159 139.583 157.938C139.583 166.717 142.614 174.137 148.676 180.199C154.738 186.261 162.158 189.292 170.937 189.292ZM1.625 201.834V167.031C1.625 159.924 3.40174 153.339 6.95521 147.277C10.5087 141.216 15.4208 136.617 21.6917 133.482C32.3521 128.047 44.3712 123.448 57.749 119.686C71.1267 115.923 85.9677 114.042 102.272 114.042C99.7635 117.804 97.6189 121.83 95.838 126.12C94.0571 130.409 92.6482 134.849 91.6115 139.439C79.0698 140.484 67.8868 142.629 58.0625 145.873C48.2382 149.117 39.9816 152.511 33.2927 156.057C31.2024 157.102 29.5804 158.619 28.4265 160.609C27.2727 162.599 26.7 164.74 26.7083 167.031V176.75H91.6115C92.6566 181.349 94.0696 185.739 95.8505 189.919C97.6314 194.1 99.7719 198.071 102.272 201.834H1.625Z" fill="#D4582A" stroke="#D4582A" stroke-width="2"/>
</svg>
