<svg width="289" height="289" viewBox="0 0 289 289" fill="none" xmlns="http://www.w3.org/2000/svg">
<path d="M13 29.4375C13 25.078 14.7318 20.8971 17.8144 17.8144C20.8971 14.7318 25.078 13 29.4375 13H95.1875C99.547 13 103.728 14.7318 106.811 17.8144C109.893 20.8971 111.625 25.078 111.625 29.4375V111.625C111.625 115.984 109.893 120.165 106.811 123.248C103.728 126.331 99.547 128.062 95.1875 128.062H29.4375C25.078 128.062 20.8971 126.331 17.8144 123.248C14.7318 120.165 13 115.984 13 111.625V29.4375ZM177.375 29.4375C177.375 25.078 179.107 20.8971 182.189 17.8144C185.272 14.7318 189.453 13 193.812 13H259.562C263.922 13 268.103 14.7318 271.186 17.8144C274.268 20.8971 276 25.078 276 29.4375V62.3125C276 66.672 274.268 70.8529 271.186 73.9356C268.103 77.0182 263.922 78.75 259.562 78.75H193.812C189.453 78.75 185.272 77.0182 182.189 73.9356C179.107 70.8529 177.375 66.672 177.375 62.3125V29.4375ZM13 210.25C13 205.891 14.7318 201.71 17.8144 198.627C20.8971 195.544 25.078 193.812 29.4375 193.812H95.1875C99.547 193.812 103.728 195.544 106.811 198.627C109.893 201.71 111.625 205.891 111.625 210.25V259.562C111.625 263.922 109.893 268.103 106.811 271.186C103.728 274.268 99.547 276 95.1875 276H29.4375C25.078 276 20.8971 274.268 17.8144 271.186C14.7318 268.103 13 263.922 13 259.562V210.25ZM177.375 160.938C177.375 156.578 179.107 152.397 182.189 149.314C185.272 146.232 189.453 144.5 193.812 144.5H259.562C263.922 144.5 268.103 146.232 271.186 149.314C274.268 152.397 276 156.578 276 160.938V259.562C276 263.922 274.268 268.103 271.186 271.186C268.103 274.268 263.922 276 259.562 276H193.812C189.453 276 185.272 274.268 182.189 271.186C179.107 268.103 177.375 263.922 177.375 259.562V160.938Z" stroke="#D4582A" stroke-width="24.6562"/>
</svg>
