<svg width="263" height="263" viewBox="0 0 263 263" fill="none" xmlns="http://www.w3.org/2000/svg">
<path d="M92.05 263C84.16 263 78.9 257.74 78.9 249.85V210.4H26.3C11.835 210.4 0 198.565 0 184.1V26.3C0 11.835 11.835 0 26.3 0H236.7C251.165 0 263 11.835 263 26.3V184.1C263 198.565 251.165 210.4 236.7 210.4H156.485L107.83 259.055C105.2 261.685 102.57 263 98.625 263H92.05ZM105.2 184.1V224.865L145.965 184.1H236.7V26.3H26.3V184.1H105.2ZM188.045 52.6L169.635 92.05H197.25V144.65H144.65V89.42L161.745 52.6H188.045ZM109.145 52.6L90.735 92.05H118.35V144.65H65.75V89.42L82.845 52.6H109.145Z" fill="#FFB300"/>
</svg>
