<svg width="10" height="6" viewBox="0 0 10 6" fill="none" xmlns="http://www.w3.org/2000/svg">
<path d="M4.99216 0.00202703C4.82555 0.00163603 4.6641 0.0713496 4.53581 0.199068L0.257587 4.48257C0.111972 4.62798 0.0204009 4.83694 0.00301722 5.06348C-0.0143664 5.29001 0.0438616 5.51556 0.164892 5.69052C0.285922 5.86547 0.45984 5.97549 0.648386 5.99637C0.836931 6.01726 1.02466 5.9473 1.17027 5.80189L4.99216 1.96387L8.81404 5.66481C8.88697 5.73598 8.9709 5.78912 9.06098 5.82119C9.15107 5.85325 9.24554 5.86362 9.33896 5.85167C9.43239 5.83973 9.52294 5.80572 9.60539 5.7516C9.68784 5.69748 9.76058 5.62432 9.81942 5.53631C9.88472 5.44822 9.93418 5.34488 9.96469 5.23276C9.9952 5.12064 10.0061 5.00216 9.99674 4.88474C9.98737 4.76732 9.95792 4.65348 9.91023 4.55037C9.86254 4.44727 9.79764 4.3571 9.7196 4.28553L5.44137 0.147666C5.3094 0.0401363 5.15124 -0.0111413 4.99216 0.00202703Z" fill="white"/>
</svg>
