<svg width="18" height="19" viewBox="0 0 18 19" fill="none" xmlns="http://www.w3.org/2000/svg">
<path d="M17.0536 9.5011H15.159C14.9077 9.5011 14.6667 9.60118 14.4891 9.77932C14.3114 9.95746 14.2116 10.1991 14.2116 10.451C14.2116 10.7029 14.3114 10.9445 14.4891 11.1227C14.6667 11.3008 14.9077 11.4009 15.159 11.4009V13.3007H14.0354C14.148 12.9965 14.2072 12.6752 14.2107 12.3508C14.2106 11.7235 14.0042 11.1137 13.6233 10.6161C13.2425 10.1184 12.7085 9.76069 12.1042 9.59833C11.5 9.43598 10.8591 9.47808 10.2812 9.71812C9.70318 9.95815 9.22034 10.3827 8.90751 10.9259C8.84433 11.034 8.80308 11.1535 8.78616 11.2777C8.76923 11.4018 8.77696 11.528 8.80889 11.6491C8.84083 11.7702 8.89634 11.8838 8.97223 11.9833C9.04811 12.0828 9.14289 12.1663 9.25108 12.229C9.35928 12.2916 9.47876 12.3322 9.60265 12.3483C9.72654 12.3645 9.8524 12.3559 9.97297 12.323C10.0935 12.2902 10.2064 12.2338 10.3052 12.1571C10.4039 12.0803 10.4865 11.9847 10.5483 11.8758C10.6314 11.7314 10.751 11.6115 10.895 11.5281C11.039 11.4448 11.2024 11.4009 11.3687 11.4009C11.6199 11.4009 11.8609 11.501 12.0385 11.6791C12.2162 11.8572 12.316 12.0988 12.316 12.3508C12.316 12.6027 12.2162 12.8443 12.0385 13.0224C11.8609 13.2006 11.6199 13.3007 11.3687 13.3007C11.1174 13.3007 10.8765 13.4007 10.6988 13.5789C10.5212 13.757 10.4213 13.9986 10.4213 14.2506C10.4213 14.5025 10.5212 14.7441 10.6988 14.9222C10.8765 15.1004 11.1174 15.2004 11.3687 15.2004C11.6199 15.2004 11.8609 15.3005 12.0385 15.4787C12.2162 15.6568 12.316 15.8984 12.316 16.1503C12.316 16.4023 12.2162 16.6439 12.0385 16.822C11.8609 17.0001 11.6199 17.1002 11.3687 17.1002C11.2024 17.1002 11.039 17.0563 10.895 16.973C10.751 16.8896 10.6314 16.7697 10.5483 16.6253C10.4865 16.5164 10.4039 16.4208 10.3052 16.344C10.2064 16.2673 10.0935 16.2109 9.97297 16.1781C9.8524 16.1452 9.72654 16.1367 9.60265 16.1528C9.47876 16.1689 9.35928 16.2095 9.25108 16.2721C9.14289 16.3348 9.04811 16.4183 8.97223 16.5178C8.89634 16.6173 8.84083 16.7309 8.80889 16.852C8.77696 16.9731 8.76923 17.0993 8.78616 17.2234C8.80308 17.3476 8.84433 17.4671 8.90751 17.5752C9.22034 18.1184 9.70318 18.5429 10.2812 18.783C10.8591 19.023 11.5 19.0651 12.1042 18.9028C12.7085 18.7404 13.2425 18.3827 13.6233 17.885C14.0042 17.3874 14.2106 16.7776 14.2107 16.1503C14.2072 15.8259 14.148 15.5046 14.0354 15.2004H15.158V18.0501C15.158 18.302 15.2578 18.5436 15.4355 18.7218C15.6131 18.8999 15.8541 19 16.1053 19C16.3566 19 16.5975 18.8999 16.7752 18.7218C16.9529 18.5436 17.0527 18.302 17.0527 18.0501V11.4009C17.3039 11.4009 17.5449 11.3008 17.7225 11.1227C17.9002 10.9445 18 10.7029 18 10.451C18 10.1991 17.9002 9.95746 17.7225 9.77932C17.5449 9.60118 17.3049 9.5011 17.0536 9.5011ZM5.71405 8.78204C5.74356 8.90381 5.7968 9.01852 5.87071 9.11957C5.94462 9.22062 6.03774 9.306 6.14471 9.37081C6.25167 9.43561 6.37037 9.47855 6.49396 9.49716C6.61755 9.51576 6.74359 9.50966 6.86482 9.47921C6.98605 9.44876 7.10007 9.39456 7.20031 9.31973C7.30056 9.2449 7.38505 9.15092 7.44891 9.0432C7.51277 8.93549 7.55475 8.81616 7.57242 8.69211C7.5901 8.56806 7.58311 8.44173 7.55188 8.32039L5.88742 1.64267C5.77098 1.1736 5.50139 0.757066 5.12157 0.459388C4.74175 0.161711 4.27352 0 3.79144 0C3.30937 0 2.84114 0.161711 2.46132 0.459388C2.0815 0.757066 1.81191 1.1736 1.69547 1.64267L0.030064 8.32039C-0.00117054 8.44173 -0.0081531 8.56806 0.00951878 8.69211C0.0271907 8.81616 0.0691676 8.93549 0.133031 9.0432C0.196895 9.15092 0.281383 9.2449 0.381629 9.31973C0.481874 9.39456 0.595896 9.44876 0.717124 9.47921C0.838353 9.50966 0.964393 9.51576 1.08798 9.49716C1.21157 9.47855 1.33027 9.43561 1.43723 9.37081C1.5442 9.306 1.63732 9.22062 1.71123 9.11957C1.78514 9.01852 1.83838 8.90381 1.86789 8.78204L2.39745 6.65143H5.1826L5.71405 8.78204ZM2.87206 4.75166L3.53235 2.10431C3.55226 2.0517 3.58767 2.00641 3.63386 1.97444C3.68005 1.94248 3.73485 1.92536 3.79097 1.92536C3.84709 1.92536 3.90189 1.94248 3.94808 1.97444C3.99427 2.00641 4.02968 2.0517 4.04959 2.10431L4.70988 4.75166H2.87206ZM10.4223 4.75166H11.3696C11.6208 4.75191 11.8616 4.85207 12.0392 5.03015C12.2168 5.20823 12.3167 5.4497 12.317 5.70155V6.65143C12.317 6.90336 12.4168 7.14497 12.5944 7.32311C12.7721 7.50125 13.013 7.60132 13.2643 7.60132C13.5155 7.60132 13.7565 7.50125 13.9342 7.32311C14.1118 7.14497 14.2116 6.90336 14.2116 6.65143V5.70155C14.2109 4.946 13.9112 4.22161 13.3784 3.68736C12.8456 3.15311 12.1231 2.85263 11.3696 2.85188H10.4223C10.171 2.85188 9.93009 2.95195 9.75243 3.13009C9.57477 3.30823 9.47496 3.54984 9.47496 3.80177C9.47496 4.05369 9.57477 4.2953 9.75243 4.47344C9.93009 4.65158 10.171 4.75166 10.4223 4.75166ZM6.63297 13.3007H5.68563C5.43446 13.3004 5.19365 13.2003 5.01605 13.0222C4.83844 12.8441 4.73855 12.6026 4.7383 12.3508V11.4009C4.7383 11.149 4.63849 10.9073 4.46084 10.7292C4.28318 10.5511 4.04222 10.451 3.79097 10.451C3.53972 10.451 3.29877 10.5511 3.12111 10.7292C2.94345 10.9073 2.84364 11.149 2.84364 11.4009V12.3508C2.84439 13.1063 3.14406 13.8307 3.67687 14.365C4.20969 14.8992 4.93212 15.1997 5.68563 15.2004H6.63297C6.88421 15.2004 7.12517 15.1004 7.30283 14.9222C7.48049 14.7441 7.5803 14.5025 7.5803 14.2506C7.5803 13.9986 7.48049 13.757 7.30283 13.5789C7.12517 13.4007 6.88421 13.3007 6.63297 13.3007Z" fill="#FE8F00"/>
</svg>
