<svg width="17" height="19" viewBox="0 0 17 19" fill="none" xmlns="http://www.w3.org/2000/svg">
<path d="M16.6683 14.0772C16.1809 13.2375 15.4563 10.8619 15.4563 7.75897C15.4563 5.89554 14.7161 4.10844 13.3984 2.7908C12.0808 1.47315 10.2937 0.73291 8.43026 0.73291C6.56683 0.73291 4.77972 1.47315 3.46208 2.7908C2.14444 4.10844 1.40419 5.89554 1.40419 7.75897C1.40419 10.8627 0.678754 13.2375 0.19132 14.0772C0.0668455 14.2906 0.00085656 14.5331 8.28282e-06 14.7802C-0.000839995 15.0273 0.0634825 15.2703 0.186489 15.4846C0.309495 15.6989 0.486836 15.8769 0.700627 16.0008C0.914417 16.1247 1.1571 16.1901 1.40419 16.1902H4.98836C5.15047 16.9835 5.58156 17.6963 6.20873 18.2083C6.83591 18.7203 7.62066 18.9999 8.43026 18.9999C9.23986 18.9999 10.0246 18.7203 10.6518 18.2083C11.279 17.6963 11.71 16.9835 11.8721 16.1902H15.4563C15.7033 16.1899 15.9459 16.1245 16.1596 16.0005C16.3732 15.8766 16.5505 15.6985 16.6734 15.4842C16.7963 15.2699 16.8605 15.027 16.8596 14.78C16.8587 14.533 16.7928 14.2905 16.6683 14.0772ZM8.43026 17.5955C7.99448 17.5953 7.56946 17.4601 7.21369 17.2085C6.85792 16.9568 6.5889 16.6011 6.44364 16.1902H10.4169C10.2716 16.6011 10.0026 16.9568 9.64682 17.2085C9.29105 17.4601 8.86603 17.5953 8.43026 17.5955ZM1.40419 14.785C2.08045 13.6222 2.80941 10.9277 2.80941 7.75897C2.80941 6.26823 3.4016 4.83855 4.45572 3.78443C5.50983 2.73032 6.93952 2.13812 8.43026 2.13812C9.921 2.13812 11.3507 2.73032 12.4048 3.78443C13.4589 4.83855 14.0511 6.26823 14.0511 7.75897C14.0511 10.9251 14.7783 13.6196 15.4563 14.785H1.40419Z" fill="black"/>
</svg>
