<svg width="218" height="240" viewBox="0 0 218 240" fill="none" xmlns="http://www.w3.org/2000/svg">
<path d="M146.979 229.167H185.333C191.146 229.167 196.721 226.858 200.831 222.747C204.941 218.637 207.25 213.063 207.25 207.25V70.2708L146.979 10H53.8334C48.0207 10 42.4461 12.3091 38.3359 16.4192C34.2258 20.5294 31.9167 26.104 31.9167 31.9167V75.75" stroke="#FCB400" stroke-width="20" stroke-linecap="round" stroke-linejoin="round"/>
<path d="M141.5 10V75.75H207.25M64.7917 174.375L12.8492 143.144M64.7917 174.375L116.734 143.144M64.7917 174.375V229.167M20.6296 131.857C14.0546 135.802 10 143.034 10 150.924V186.867C10 194.757 14.0546 201.99 20.6296 205.935L53.5046 225.989C60.4083 230.262 69.175 230.262 76.0787 225.989L108.954 205.935C115.529 201.99 119.583 194.757 119.583 186.867V150.924C119.583 143.034 115.529 135.802 108.954 131.857L76.0787 111.803C72.6825 109.72 68.7759 108.617 64.7917 108.617C60.8074 108.617 56.9009 109.72 53.5046 111.803L20.6296 131.857Z" stroke="#FCB400" stroke-width="20" stroke-linecap="round" stroke-linejoin="round"/>
</svg>
