<svg width="240" height="240" viewBox="0 0 240 240" fill="none" xmlns="http://www.w3.org/2000/svg">
<path d="M218.208 70.2708L174.375 92.1875M174.375 92.1875L168.896 94.9271L119.583 119.583M174.375 92.1875V130.542M174.375 92.1875L70.2708 37.3958M119.583 119.583L20.9583 70.2708M119.583 119.583V223.688M158.792 25.1444L180.709 36.6507C204.28 49.0226 216.071 55.2031 222.625 66.3258C229.167 77.4376 229.167 91.278 229.167 118.948V120.23C229.167 147.889 229.167 161.729 222.625 172.841C216.071 183.964 204.28 190.155 180.709 202.527L158.792 214.022C139.549 224.115 129.928 229.167 119.583 229.167C109.239 229.167 99.6173 224.126 80.3744 214.022L58.4578 202.516C34.8864 190.144 23.0952 183.964 16.5421 172.841C10 161.729 10 147.889 10 120.241V118.959C10 91.2889 10 77.4485 16.5421 66.3368C23.0952 55.2141 34.8864 49.0226 58.4578 36.6616L80.3744 25.1554C99.6173 15.0518 109.239 10 119.583 10C129.928 10 139.549 15.0408 158.792 25.1444Z" stroke="#FCB400" stroke-width="20" stroke-linecap="round"/>
</svg>
