<svg width="220" height="225" viewBox="0 0 220 225" fill="none" xmlns="http://www.w3.org/2000/svg">
<path d="M130.514 15.4513L107.72 38.3542H131.5C154.751 38.3542 177.049 47.5904 193.49 64.0311C209.93 80.4718 219.167 102.77 219.167 126.021H197.25C197.25 108.583 190.323 91.8591 177.992 79.5286C165.662 67.198 148.938 60.2708 131.5 60.2708H107.72L130.623 83.1737L115.063 98.625L65.75 49.3125L81.2013 33.8613L115.063 0L130.514 15.4513ZM0 115.062V224.646H175.333V115.062H0ZM21.9167 186.949V152.869C28.5039 149.043 33.9804 143.566 37.8063 136.979H137.527C141.353 143.566 146.829 149.043 153.417 152.869V186.949C146.922 190.773 141.525 196.208 137.746 202.729H37.8063C33.967 196.181 28.4914 190.743 21.9167 186.949ZM87.6667 191.771C96.7402 191.771 104.104 181.963 104.104 169.854C104.104 157.745 96.7402 147.937 87.6667 147.937C78.5932 147.937 71.2292 157.745 71.2292 169.854C71.2292 181.963 78.5932 191.771 87.6667 191.771Z" fill="#FCB400"/>
</svg>
