<svg width="240" height="242" viewBox="0 0 240 242" fill="none" xmlns="http://www.w3.org/2000/svg">
<path d="M88.9378 0H150.743L157.833 35.4721C163.703 38.1023 169.285 41.334 174.49 45.1155L208.778 33.5106L239.681 87.0311L212.493 110.92C213.151 117.318 213.151 123.766 212.493 130.163L239.67 154.052L208.778 207.573L174.49 195.979C169.285 199.756 163.703 202.984 157.833 205.611L150.732 241.083H88.9378L81.8478 205.611C75.9773 202.981 70.3953 199.749 65.1911 195.968L30.9025 207.573L0 154.052L27.1876 130.163C26.5301 123.766 26.5301 117.318 27.1876 110.92L0.0109588 87.0311L30.9135 33.5106L65.1911 45.1045C70.3956 41.3268 75.9776 38.0987 81.8478 35.4721L88.9378 0ZM106.909 21.9167L100.97 51.559L95.217 53.6739C87.5918 56.4874 80.5051 60.5867 74.2646 65.7938L69.5525 69.7279L40.8965 60.0298L27.9657 82.4286L50.6713 102.384L49.6303 108.422C48.2561 116.443 48.2561 124.64 49.6303 132.662L50.6713 138.689L27.9547 158.655L40.8855 181.054L69.5525 171.355L74.2646 175.289C80.5086 180.492 87.5944 184.59 95.217 187.409L100.97 189.524L106.909 219.167H132.771L138.711 189.524L144.464 187.409C152.089 184.596 159.175 180.496 165.416 175.289L170.128 171.355L198.795 181.054L211.726 158.655L189.02 138.7L190.05 132.662C191.424 124.64 191.424 116.443 190.05 108.422L189.02 102.395L211.726 82.4286L198.795 60.0298L170.128 69.7279L165.416 65.7938C159.176 60.5863 152.089 56.487 144.464 53.6739L138.711 51.559L132.771 21.9167H106.909ZM119.84 87.6667C111.121 87.6667 102.759 91.1303 96.5942 97.2955C90.4289 103.461 86.9653 111.823 86.9653 120.542C86.9653 129.261 90.4289 137.623 96.5942 143.788C102.759 149.953 111.121 153.417 119.84 153.417C128.559 153.417 136.921 149.953 143.086 143.788C149.252 137.623 152.715 129.261 152.715 120.542C152.715 111.823 149.252 103.461 143.086 97.2955C136.921 91.1303 128.559 87.6667 119.84 87.6667ZM65.0487 120.542C65.0487 106.01 70.8213 92.0735 81.0968 81.7981C91.3722 71.5227 105.309 65.75 119.84 65.75C134.372 65.75 148.308 71.5227 158.584 81.7981C168.859 92.0735 174.632 106.01 174.632 120.542C174.632 135.073 168.859 149.01 158.584 159.285C148.308 169.561 134.372 175.333 119.84 175.333C105.309 175.333 91.3722 169.561 81.0968 159.285C70.8213 149.01 65.0487 135.073 65.0487 120.542Z" fill="#FFB300"/>
</svg>
