<svg width="220" height="220" viewBox="0 0 220 220" fill="none" xmlns="http://www.w3.org/2000/svg">
<path d="M65.75 175.333C53.6958 175.333 43.9429 185.196 43.9429 197.25C43.9429 209.304 53.6958 219.167 65.75 219.167C77.8042 219.167 87.6667 209.304 87.6667 197.25C87.6667 185.196 77.8042 175.333 65.75 175.333ZM175.333 175.333C163.279 175.333 153.526 185.196 153.526 197.25C153.526 209.304 163.279 219.167 175.333 219.167C187.387 219.167 197.25 209.304 197.25 197.25C197.25 185.196 187.387 175.333 175.333 175.333ZM159.444 120.542C167.662 120.542 174.895 116.049 178.621 109.255L217.852 38.135C218.775 36.474 219.249 34.6006 219.226 32.7003C219.203 30.7999 218.685 28.9385 217.722 27.3001C216.759 25.6617 215.384 24.3032 213.735 23.359C212.086 22.4148 210.218 21.9176 208.318 21.9167H46.1346L35.8337 0H0V21.9167H21.9167L61.3667 105.09L46.5729 131.829C38.5733 146.513 49.0933 164.375 65.75 164.375H197.25V142.458H65.75L77.8042 120.542H159.444ZM56.545 43.8333H189.689L159.444 98.625H82.5162L56.545 43.8333Z" fill="#FCB400"/>
</svg>
