<svg width="264" height="263" viewBox="0 0 264 263" fill="none" xmlns="http://www.w3.org/2000/svg">
<path fill-rule="evenodd" clip-rule="evenodd" d="M169.494 136.384C167.318 130.686 163.288 125.752 157.959 122.262C152.63 118.773 146.264 116.899 139.738 116.899V109.592H123.96V116.899C115.591 116.899 107.565 119.978 101.647 125.458C95.7295 130.939 92.4049 138.372 92.4049 146.123C92.4049 153.874 95.7295 161.308 101.647 166.788C107.565 172.269 115.591 175.348 123.96 175.348V204.573C117.097 204.573 111.251 200.518 109.074 194.833C108.751 193.904 108.23 193.043 107.541 192.303C106.853 191.563 106.011 190.958 105.066 190.524C104.121 190.091 103.091 189.837 102.039 189.778C100.986 189.719 99.9307 189.857 98.9361 190.182C97.9416 190.508 97.0276 191.014 96.2483 191.673C95.4689 192.331 94.84 193.127 94.3988 194.015C93.9575 194.902 93.7129 195.862 93.6794 196.839C93.6458 197.815 93.8241 198.788 94.2036 199.699C96.3796 205.398 100.41 210.332 105.739 213.821C111.068 217.311 117.434 219.185 123.96 219.185V226.491H139.738V219.185C148.106 219.185 156.133 216.106 162.05 210.625C167.968 205.145 171.293 197.711 171.293 189.96C171.293 182.209 167.968 174.776 162.05 169.295C156.133 163.815 148.106 160.736 139.738 160.736V131.511C143 131.51 146.183 132.446 148.848 134.191C151.512 135.935 153.528 138.401 154.616 141.25C155.312 143.077 156.764 144.573 158.652 145.409C159.587 145.823 160.6 146.062 161.635 146.113C162.67 146.164 163.705 146.026 164.682 145.707C165.659 145.387 166.558 144.893 167.329 144.251C168.099 143.61 168.726 142.834 169.173 141.969C169.62 141.103 169.878 140.164 169.933 139.206C169.988 138.248 169.839 137.289 169.494 136.384ZM123.96 131.511C119.776 131.511 115.762 133.05 112.804 135.791C109.845 138.531 108.182 142.248 108.182 146.123C108.182 149.999 109.845 153.715 112.804 156.456C115.762 159.196 119.776 160.736 123.96 160.736V131.511ZM139.738 204.573C143.922 204.573 147.935 203.033 150.894 200.293C153.853 197.552 155.515 193.836 155.515 189.96C155.515 186.085 153.853 182.368 150.894 179.628C147.935 176.887 143.922 175.348 139.738 175.348V204.573Z" fill="#FCB400"/>
<path fill-rule="evenodd" clip-rule="evenodd" d="M46.2791 19.1495C65.6381 10.3748 97.3984 0 132.156 0C166.188 0 197.112 9.94369 216.369 18.6015L217.458 19.091C223.264 21.7505 227.95 24.2638 231.247 26.3022L202.106 65.7555C269.287 129.363 321.179 263 132.156 263C-56.8666 263 -6.37058 131.789 61.394 65.7555L32.4422 26.3022C34.6747 24.9506 37.5068 23.3797 40.8832 21.7139C42.5556 20.881 44.3542 20.0189 46.2791 19.1495ZM183.378 65.2294L206.705 33.6449C185.011 35.0915 159.199 39.8113 134.349 46.4745C116.6 51.2235 96.8777 50.5002 78.6152 47.3805C74.0131 46.5903 69.4427 45.6497 64.9124 44.5603L80.0588 65.2148C112.521 75.9184 150.908 75.9184 183.378 65.2294ZM70.9473 77.6645C108.932 91.254 154.584 91.254 192.569 77.6499C208.424 93.1294 221.687 110.72 231.918 129.838C242.583 149.988 248.389 170.131 247.443 187.491C246.528 204.244 239.412 218.557 223.161 229.194C206.224 240.278 177.738 248.388 132.148 248.388C86.5119 248.388 57.8914 240.417 40.7964 229.457C24.4272 218.951 17.2405 204.836 16.2229 188.309C15.1579 171.14 20.8378 151.099 31.464 130.81C41.601 111.463 55.7456 92.8394 70.9473 77.6645ZM61.8752 28.6109C68.1862 30.3498 74.7812 31.8622 81.4709 33.0092C98.4318 35.9025 115.44 36.3262 129.955 32.4321C146.871 27.8682 164.075 24.2789 181.469 21.6847C166.954 17.6371 149.977 14.6123 132.148 14.6123C104.972 14.6123 79.6249 21.6336 61.8752 28.6109Z" fill="#FCB400"/>
</svg>
